<svg id="Layer_1" data-name="Layer 1" xmlns="http://www.w3.org/2000/svg" viewBox="0 0 1441.62 1438.98"><defs><style>.cls-1{fill:#555;}.cls-2{fill:#fff;}</style></defs><title>amr-logo</title><path class="cls-1" d="M439,1c8.59,5.57,14.53,12.84,16.34,23.33,2.78,16.21-9.72,33.49-26.24,34.44-14.44.82-29,.44-43.46.43Q228.17,59,70.74,58.82c-1.79,0-3.58.15-5.94.25,0,2.15,0,3.93,0,5.71q.23,175.92.48,351.84c0,16.78-9.16,29.12-24.11,32.22A30.56,30.56,0,0,1,5.94,429.46c-.58-1.53-1.29-3-1.94-4.51V19C7.73,11.94,12,5.35,19,1Z" transform="translate(-4 -1)"/><path class="cls-2" d="M226,26c-7,4.35-11.27,10.94-15,18V26Z" transform="translate(-4 -1)"/><path class="cls-1" d="M291.58,396.62q24.57,24.6,48.41,48.5c-101.83,141.54-139.87,298-103.61,469.58,30,142,104.81,257.3,221.79,343.47,229.48,169,549.35,147,754.44-61.76,200.45-204.08,218.9-530.26,42.32-755.32-97.67-124.47-225.75-197.79-382.48-218.17-157-20.41-298.46,20.91-425,114.58L399,289c226.94-185.69,593.33-200.45,844.23,36.9,261.58,247.46,268.52,652.82,27.45,909.37-247.24,263.12-652.26,271.3-909,32.41C96.63,1021,99.05,638.41,291.58,396.62Z" transform="translate(-4 -1)"/><path class="cls-1" d="M416.35,521.53l48.75,48.83c-65,103.64-85.45,215.12-51.6,334.14,27.18,95.59,82.92,171.7,166.37,226,165.49,107.57,380.1,81.45,514-62.64,136.18-146.58,144.44-366.5,21.07-522.56-65.39-82.72-151.21-131.4-255-148.26-77.31-12.55-187.22-3.32-287.43,65.47l-48.9-49C688.06,289.16,953,283,1132.61,461.38c183.42,182.12,183.92,479.78,1.81,664-182.53,184.67-481,186.91-665.78,3.17C284.32,945.32,298.29,680.62,416.35,521.53Z" transform="translate(-4 -1)"/><path class="cls-1" d="M542.88,646.86,577,681.23c4.46,4.5,8.78,9.15,13.5,13.36,2.76,2.48,2.78,4.62,1.38,7.78A220.79,220.79,0,0,0,572.61,803c2.8,62.2,27.17,114.85,72.29,157.46,37.05,35,81.55,54.53,132.23,59.75a226.72,226.72,0,0,0,229.44-131.88c51.85-114.12,1.81-249.05-112.4-300.68-63.07-28.51-126.82-28.08-190.07.51-3.62,1.64-5.75,1.54-8.59-1.35-14.58-14.87-29.38-29.52-44.1-44.26-.8-.81-1.52-1.71-2.29-2.59,87.61-56.69,238-65.74,349.48,34.69,116.84,105.23,130.29,285.14,30.82,406.83-100,122.28-278.61,145.13-405.5,51.13C496.28,938.05,471.48,769.91,542.88,646.86Z" transform="translate(-4 -1)"/></svg>